<svg id="Capa_1" enable-background="new 0 0 512 512" height="512" viewBox="0 0 512 512" width="512" xmlns="http://www.w3.org/2000/svg"><path d="m406 467c-4.142 0-7.5 3.358-7.5 7.5v22.5h-345v-422h22.5c4.142 0 7.5-3.358 7.5-7.5s-3.358-7.5-7.5-7.5h-30c-4.142 0-7.5 3.358-7.5 7.5v437c0 4.142 3.358 7.5 7.5 7.5h360c4.142 0 7.5-3.358 7.5-7.5v-30c0-4.142-3.358-7.5-7.5-7.5z"/><path d="m458.657 150.972c-.166-.205-135.923-135.962-136.128-136.128-9.458-9.177-22.341-14.844-36.529-14.844h-180c-4.142 0-7.5 3.358-7.5 7.5v437c0 4.142 3.358 7.5 7.5 7.5h360c4.142 0 7.5-3.358 7.5-7.5v-257c0-14.188-5.666-27.07-14.843-36.528zm-120.171-99.019 83.061 83.061c-.183-.002-.364-.014-.547-.014h-82.5v-82.5c0-.183-.012-.364-.014-.547zm120.014 385.047h-345v-422h172.5c20.678 0 37.5 16.822 37.5 37.5v90c0 4.142 3.358 7.5 7.5 7.5h90c20.678 0 37.5 16.822 37.5 37.5z"/></svg>