<?xml version="1.0" encoding="iso-8859-1"?>
<!-- Generator: Adobe Illustrator 19.0.0, SVG Export Plug-In . SVG Version: 6.00 Build 0)  -->
<svg version="1.1" id="Capa_1" xmlns="http://www.w3.org/2000/svg" xmlns:xlink="http://www.w3.org/1999/xlink" x="0px" y="0px"
	 viewBox="0 0 384 384" style="enable-background:new 0 0 384 384;" xml:space="preserve">
<polygon style="fill:#EFEEEE;" points="64,0 64,384 288,384 384,288 384,0 "/>
<polygon style="fill:#ABABAB;" points="288,288 288,384 384,288 "/>
<polygon style="fill:#DEDEDD;" points="192,384 288,384 288,288 "/>
<path style="fill:#CB5641;" d="M0,96v112h256V96L0,96L0,96z"/>
<g>
	<path style="fill:#FFFFFF;" d="M54.88,167.2c0,7.296-1.68,12.496-5.088,15.616c-3.376,3.088-8.56,4.656-15.536,4.656
		c-3.664,0-6.656-0.496-8.992-1.504c-2.336-0.992-4.208-2.384-5.584-4.224s-2.32-3.952-2.816-6.384
		c-0.528-2.416-0.784-4.992-0.784-7.664v-2.992h12.672v2.128c0,3.648,0.384,6.336,1.2,8.112c0.8,1.744,2.432,2.64,4.944,2.64
		s4.16-0.896,4.96-2.64c0.8-1.76,1.2-4.464,1.2-8.112v-48.976H54.88C54.88,117.856,54.88,167.2,54.88,167.2z"/>
	<path style="fill:#FFFFFF;" d="M80.8,167.008c0,1.6,0.144,3.056,0.384,4.352c0.256,1.312,0.736,2.416,1.44,3.312
		c0.704,0.912,1.664,1.616,2.848,2.128c1.168,0.496,2.656,0.768,4.448,0.768c2.112,0,4.016-0.688,5.696-2.064
		c1.696-1.376,2.56-3.52,2.56-6.384c0-1.536-0.224-2.864-0.624-3.984c-0.416-1.12-1.104-2.128-2.064-3.008
		c-0.976-0.912-2.24-1.712-3.808-2.448s-3.504-1.488-5.792-2.256c-3.072-1.024-5.728-2.16-7.968-3.376
		c-2.24-1.2-4.112-2.624-5.616-4.272c-1.504-1.632-2.624-3.52-3.312-5.664c-0.72-2.16-1.056-4.624-1.056-7.456
		c0-6.784,1.888-11.824,5.664-15.152s8.976-4.992,15.568-4.992c3.056,0,5.904,0.336,8.496,1.008s4.832,1.744,6.72,3.264
		c1.872,1.504,3.36,3.424,4.4,5.744c1.056,2.336,1.6,5.136,1.6,8.4v1.92H97.12c0-3.264-0.576-5.776-1.712-7.552
		c-1.152-1.744-3.088-2.64-5.776-2.64c-1.536,0-2.816,0.24-3.824,0.672c-1.008,0.448-1.84,1.04-2.448,1.776s-1.04,1.616-1.264,2.576
		c-0.224,0.96-0.336,1.952-0.336,2.976c0,2.128,0.448,3.888,1.344,5.328c0.896,1.456,2.816,2.784,5.76,3.984l10.656,4.608
		c2.624,1.152,4.752,2.352,6.416,3.616s2.992,2.592,3.984,4.032s1.712,3.008,2.08,4.752c0.384,1.712,0.576,3.648,0.576,5.744
		c0,7.232-2.096,12.496-6.304,15.792c-4.192,3.296-10.032,4.96-17.504,4.96c-7.808,0-13.408-1.696-16.768-5.088
		s-5.04-8.256-5.04-14.592v-2.784H80.8L80.8,167.008L80.8,167.008z"/>
	<path style="fill:#FFFFFF;" d="M124.528,137.776c0.464-4.368,1.536-8.144,3.152-11.28c1.648-3.12,4-5.584,7.056-7.344
		c3.056-1.744,7.2-2.64,12.368-2.64c5.184,0,9.312,0.896,12.384,2.64c3.072,1.76,5.424,4.224,7.04,7.344
		c1.648,3.136,2.688,6.912,3.184,11.28c0.464,4.384,0.72,9.168,0.72,14.352c0,5.232-0.256,10.048-0.72,14.384
		c-0.496,4.352-1.552,8.096-3.184,11.232c-1.632,3.136-3.968,5.536-7.04,7.2c-3.072,1.664-7.2,2.496-12.384,2.496
		c-5.168,0-9.312-0.848-12.368-2.496c-3.056-1.664-5.424-4.064-7.056-7.2c-1.632-3.136-2.688-6.88-3.152-11.232
		c-0.48-4.336-0.72-9.152-0.72-14.384C123.808,146.96,124.048,142.176,124.528,137.776z M137.968,163.888
		c0.224,3.232,0.672,5.856,1.344,7.872s1.632,3.488,2.88,4.416c1.248,0.928,2.912,1.392,4.944,1.392c2.064,0,3.696-0.464,4.96-1.392
		c1.248-0.944,2.208-2.4,2.896-4.416c0.656-2.016,1.104-4.64,1.344-7.872c0.224-3.232,0.336-7.136,0.336-11.744
		s-0.112-8.512-0.336-11.712c-0.24-3.2-0.688-5.824-1.344-7.872c-0.688-2.048-1.648-3.536-2.896-4.448
		c-1.248-0.944-2.896-1.408-4.96-1.408c-2.032,0-3.68,0.464-4.944,1.408c-1.248,0.928-2.208,2.4-2.88,4.448
		c-0.672,2.048-1.12,4.672-1.344,7.872s-0.336,7.104-0.336,11.712S137.744,160.656,137.968,163.888z"/>
	<path style="fill:#FFFFFF;" d="M217.024,164.816h0.192v-46.96h12.672V186.4H214.16l-16.912-48h-0.192v48h-12.688v-68.544h15.936
		L217.024,164.816z"/>
</g>
<g>
</g>
<g>
</g>
<g>
</g>
<g>
</g>
<g>
</g>
<g>
</g>
<g>
</g>
<g>
</g>
<g>
</g>
<g>
</g>
<g>
</g>
<g>
</g>
<g>
</g>
<g>
</g>
<g>
</g>
</svg>
