<?xml version="1.0" encoding="utf-8"?>
<!-- Generator: Adobe Illustrator 18.0.0, SVG Export Plug-In . SVG Version: 6.00 Build 0)  -->
<!DOCTYPE svg PUBLIC "-//W3C//DTD SVG 1.1//EN" "http://www.w3.org/Graphics/SVG/1.1/DTD/svg11.dtd">
<svg version="1.1" id="Layer_1" xmlns="http://www.w3.org/2000/svg" xmlns:xlink="http://www.w3.org/1999/xlink" x="0px" y="0px"
	 viewBox="0 0 331.6 71.7" enable-background="new 0 0 331.6 71.7" xml:space="preserve">
<g>
	<path fill="#FFFFFF" d="M20.7,25.4c-4.1-5.2-9.2-11.3-11.5-14H9v13.6H3.5v-22h4.8c2.2,2.4,6.9,7.8,10.3,12.2l0.2,0V3.2h5.5v22
		L20.7,25.4z"/>
	<path fill="#FFFFFF" d="M27.7,15.6V3.2h5.7v12.7c0,3.7,1.9,5.3,4.4,5.3c2.3,0,4.4-1.3,4.4-5.3V3.2h5.6V16c0,6.7-4,9.5-10.1,9.5
		C31.7,25.4,27.7,22.7,27.7,15.6z"/>
	<path fill="#FFFFFF" d="M51.3,3.2h13.4v4.2h-7.7v4.8h5.8l-0.5,3.7h-5.3v5h7.8v4.2H51.3V3.2z"/>
	<path fill="#FFFFFF" d="M74.4,25.1c-1.4-3.3-6.2-15.8-8.1-22h5.9c1.2,4,3,9.9,4.9,15.6h0.2c2.1-5.6,4.1-12.1,5-15.6h5.9
		c-1.7,5.6-6.8,19-8.2,22H74.4z"/>
	<path fill="#FFFFFF" d="M89.2,14.1c0-6.9,3.7-11.3,11.1-11.3c7.4,0,11.1,4.3,11.1,11.2c0,7.4-4.2,11.5-11.1,11.5
		C93.4,25.4,89.2,21.3,89.2,14.1z M105.6,14.1c0-4.9-1.8-7.2-5.3-7.2c-3.5,0-5.2,2.5-5.2,7.3c0,4.6,1.7,7.2,5.2,7.2
		C103.8,21.3,105.6,18.8,105.6,14.1z"/>
	<path fill="#FFFFFF" d="M135.8,19.7h-7.4c-0.5,1.3-1.6,4.8-1.8,5.4h-5.8c2.1-5.4,6.8-17.2,8.8-22h5.1c1.3,3.2,6.9,16.7,8.9,22h-5.8
		L135.8,19.7z M132,9.8c-0.7,1.7-1.5,3.9-2.3,6h4.7c-0.4-1-2.1-5.7-2.3-6H132z"/>
	<path fill="#FFFFFF" d="M146,3.2h13.4v4.2h-7.7v4.8h5.8l-0.5,3.7h-5.3v5h7.8v4.2H146V3.2z"/>
	<path fill="#FFFFFF" d="M180.9,25.1c-0.7,0.2-1.9,0.3-2.7,0.3c-1.5,0-2.5-0.2-3.5-1.3c-1-1.1-2.9-4-4.5-6.9h-2.1v7.9h-5.6v-22h8.1
		c5.3,0,8.2,2.2,8.2,6.6c0,3-1.2,4.7-3.5,5.9c0.7,1.3,2,3.2,3.2,4.8c0.7,0.8,1.3,0.9,2,0.9h0.4V25.1z M168.1,13.1h1.4
		c2.3,0,3.6-0.9,3.6-3c0-2.1-1.3-2.8-3.4-2.8h-1.6V13.1z"/>
	<path fill="#FFFFFF" d="M182.1,14.1c0-6.9,3.7-11.3,11.1-11.3c7.4,0,11.1,4.3,11.1,11.2c0,7.4-4.2,11.5-11.1,11.5
		C186.3,25.4,182.1,21.3,182.1,14.1z M198.5,14.1c0-4.9-1.8-7.2-5.3-7.2c-3.5,0-5.2,2.5-5.2,7.3c0,4.6,1.7,7.2,5.2,7.2
		C196.7,21.3,198.5,18.8,198.5,14.1z"/>
	<path fill="#FFFFFF" d="M213,18v7.1h-5.7v-22h8.9c5.5,0,8.1,2.7,8.1,7c0,4.7-3.2,7.9-9.3,7.9C214.4,18,213.7,18,213,18z M213,13.6
		c0.4,0.1,1,0.1,1.5,0.1c2.7,0,4.1-0.9,4.1-3.4c0-2.3-1.5-3-3.7-3H213V13.6z"/>
	<path fill="#FFFFFF" d="M226.8,15.6V3.2h5.7v12.7c0,3.7,1.9,5.3,4.4,5.3c2.3,0,4.4-1.3,4.4-5.3V3.2h5.6V16c0,6.7-4,9.5-10.1,9.5
		C230.8,25.4,226.8,22.7,226.8,15.6z"/>
	<path fill="#FFFFFF" d="M250.3,3.2h13.4v4.2H256v4.8h5.8l-0.5,3.7H256v5h7.8v4.2h-13.5V3.2z"/>
	<path fill="#FFFFFF" d="M285.3,25.1c-0.7,0.2-1.9,0.3-2.7,0.3c-1.5,0-2.5-0.2-3.5-1.3c-1-1.1-2.9-4-4.5-6.9h-2.1v7.9h-5.6v-22h8.1
		c5.3,0,8.2,2.2,8.2,6.6c0,3-1.2,4.7-3.5,5.9c0.7,1.3,2,3.2,3.2,4.8c0.7,0.8,1.3,0.9,2,0.9h0.4V25.1z M272.5,13.1h1.4
		c2.3,0,3.6-0.9,3.6-3c0-2.1-1.3-2.8-3.4-2.8h-1.6V13.1z"/>
	<path fill="#FFFFFF" d="M292.8,7.3H286V3.2h19.2v4.2h-6.8v17.8h-5.7V7.3z"/>
	<path fill="#FFFFFF" d="M306.4,14.1c0-6.9,3.7-11.3,11.1-11.3c7.4,0,11.1,4.3,11.1,11.2c0,7.4-4.2,11.5-11.1,11.5
		C310.5,25.4,306.4,21.3,306.4,14.1z M322.7,14.1c0-4.9-1.8-7.2-5.3-7.2c-3.5,0-5.2,2.5-5.2,7.3c0,4.6,1.7,7.2,5.2,7.2
		C320.9,21.3,322.7,18.8,322.7,14.1z"/>
	<path fill="#FFFFFF" d="M3.2,32.3h4.6v17.9H3.2V32.3z"/>
	<path fill="#FFFFFF" d="M34.5,50.4c-3.4-4.2-7.5-9.2-9.4-11.4H25v11.1h-4.4V32.3h3.9c1.8,2,5.6,6.4,8.4,9.9l0.1,0v-9.9h4.5v17.9
		L34.5,50.4z"/>
	<path fill="#FFFFFF" d="M54.9,35.7h-5.5v-3.4H65v3.4h-5.5v14.5h-4.6V35.7z"/>
	<path fill="#FFFFFF" d="M77,32.3h10.9v3.4h-6.3v3.9h4.7l-0.4,3h-4.3v4.1H88v3.4H77V32.3z"/>
	<path fill="#FFFFFF" d="M115.2,50.2c-0.5,0.1-1.6,0.3-2.2,0.3c-1.2,0-2.1-0.2-2.9-1.1c-0.8-0.9-2.3-3.3-3.6-5.7h-1.7v6.5h-4.6V32.3
		h6.6c4.3,0,6.7,1.8,6.7,5.4c0,2.4-1,3.8-2.8,4.8c0.6,1,1.6,2.6,2.6,3.9c0.6,0.6,1.1,0.7,1.6,0.7h0.3V50.2z M104.7,40.4h1.1
		c1.8,0,3-0.7,3-2.5c0-1.7-1-2.2-2.8-2.2h-1.3V40.4z"/>
	<path fill="#FFFFFF" d="M140.7,50.4c-3.4-4.2-7.5-9.2-9.4-11.4h-0.2v11.1h-4.4V32.3h3.9c1.8,2,5.6,6.4,8.4,9.9l0.1,0v-9.9h4.5v17.9
		L140.7,50.4z"/>
	<path fill="#FFFFFF" d="M167.5,45.8h-6c-0.4,1-1.3,3.9-1.5,4.4h-4.7c1.7-4.4,5.5-14,7.2-17.9h4.2c1.1,2.6,5.6,13.6,7.2,17.9h-4.8
		L167.5,45.8z M164.4,37.7c-0.5,1.4-1.2,3.2-1.8,4.9h3.8c-0.3-0.8-1.7-4.6-1.8-4.9H164.4z"/>
	<path fill="#FFFFFF" d="M184.4,41.4c0-6.6,4.2-9.4,9.4-9.4c1.7,0,4,0.4,5.6,1.3l-0.8,3.4c-1.2-0.6-2.8-1-4.1-1
		c-3.1,0-5.2,1.9-5.2,5.7c0,3.7,2.4,5.4,5.4,5.4c1.5,0,3.1-0.4,4.3-1l0.5,3.4c-1.7,0.8-3.6,1.2-5.6,1.2
		C189.1,50.4,184.4,47.9,184.4,41.4z"/>
	<path fill="#FFFFFF" d="M211.5,32.3h4.6v17.9h-4.6V32.3z"/>
	<path fill="#FFFFFF" d="M228.3,41.2c0-5.7,3-9.2,9-9.2c6,0,9,3.5,9,9.1c0,6-3.4,9.3-9,9.3C231.7,50.4,228.3,47,228.3,41.2z
		 M241.6,41.2c0-4-1.5-5.9-4.3-5.9c-2.9,0-4.2,2.1-4.2,5.9c0,3.7,1.4,5.9,4.2,5.9C240.2,47.1,241.6,45,241.6,41.2z"/>
	<path fill="#FFFFFF" d="M272.6,50.4c-3.4-4.2-7.5-9.2-9.4-11.4H263v11.1h-4.4V32.3h3.9c1.8,2,5.6,6.4,8.4,9.9l0.1,0v-9.9h4.5v17.9
		L272.6,50.4z"/>
	<path fill="#FFFFFF" d="M299.4,45.8h-6c-0.4,1-1.3,3.9-1.5,4.4h-4.7c1.7-4.4,5.5-14,7.2-17.9h4.2c1.1,2.6,5.6,13.6,7.2,17.9H301
		L299.4,45.8z M296.3,37.7c-0.5,1.4-1.2,3.2-1.8,4.9h3.8c-0.3-0.8-1.7-4.6-1.8-4.9H296.3z"/>
	<path fill="#FFFFFF" d="M317.4,32.3h4.6v14.5h6.8v3.4h-11.4V32.3z"/>
	<path fill="#FFFFFF" d="M2.8,56.5h4.3c4.4,0,6.2,2.4,6.2,6.1c0,3.6-1.9,6.1-6,6.1H2.8V56.5z M5,67h2c2.8,0,4-1.9,4-4.5
		c0-3-1.4-4.4-4.1-4.4H5V67z"/>
	<path fill="#FFFFFF" d="M20.9,56.5h6.7v1.7h-4.5v3.6h3.4l-0.2,1.5h-3.2V67h4.6v1.7h-6.8V56.5z"/>
	<path fill="#FFFFFF" d="M45,56.5h2.2V67H52v1.7H45V56.5z"/>
	<path fill="#FFFFFF" d="M66.5,65.2h-4.4c-0.4,1.2-1,2.9-1.2,3.5h-2.2c1-2.6,3.8-9.8,4.8-12.2h1.8c0.8,2.1,3.9,9.7,4.8,12.2h-2.3
		C67.5,67.9,67,66.6,66.5,65.2z M64.2,59.3c-0.5,1.3-1.1,2.8-1.6,4.3h3.3L64.2,59.3L64.2,59.3z"/>
	<path fill="#FFFFFF" d="M86.6,62.7c0-4.3,2.7-6.4,6.2-6.4c1.1,0,2.7,0.3,3.6,0.9L96,58.9c-0.8-0.5-2-0.8-3-0.8
		c-2.4,0-4.1,1.5-4.1,4.6c0,3,2,4.4,4.2,4.4c1,0,2.2-0.3,3.1-0.7l0.2,1.7c-1.1,0.6-2.4,0.8-3.6,0.8C89.7,68.8,86.6,67,86.6,62.7z"/>
	<path fill="#FFFFFF" d="M104,56.5h2.1v12.2H104V56.5z"/>
	<path fill="#FFFFFF" d="M113.9,63.6v-7.1h2.2v7.2c0,2.3,1.4,3.4,3,3.4c1.5,0,3-1,3-3.4v-7.2h2.2v7.3c0,3.5-2.3,5.1-5.2,5.1
		C116.2,68.8,113.9,67.3,113.9,63.6z"/>
	<path fill="#FFFFFF" d="M132.1,56.5h4.3c4.4,0,6.2,2.4,6.2,6.1c0,3.6-1.9,6.1-6,6.1h-4.5V56.5z M134.2,67h2c2.8,0,4-1.9,4-4.5
		c0-3-1.4-4.4-4.1-4.4h-1.9V67z"/>
	<path fill="#FFFFFF" d="M157,65.2h-4.4c-0.4,1.2-1,2.9-1.2,3.5h-2.2c1-2.6,3.8-9.8,4.8-12.2h1.8c0.8,2.1,3.9,9.7,4.8,12.2h-2.3
		C158,67.9,157.5,66.6,157,65.2z M154.7,59.3c-0.5,1.3-1.1,2.8-1.6,4.3h3.3L154.7,59.3L154.7,59.3z"/>
	<path fill="#FFFFFF" d="M167.8,56.5h4.3c4.4,0,6.2,2.4,6.2,6.1c0,3.6-1.9,6.1-6,6.1h-4.5V56.5z M170,67h2c2.8,0,4-1.9,4-4.5
		c0-3-1.4-4.4-4.1-4.4H170V67z"/>
	<path fill="#FFFFFF" d="M195.7,56.5h4.3c4.4,0,6.2,2.4,6.2,6.1c0,3.6-1.9,6.1-6,6.1h-4.5V56.5z M197.8,67h2c2.8,0,4-1.9,4-4.5
		c0-3-1.4-4.4-4.1-4.4h-1.9V67z"/>
	<path fill="#FFFFFF" d="M213.7,56.5h6.7v1.7h-4.5v3.6h3.5l-0.2,1.5h-3.2V67h4.6v1.7h-6.8V56.5z"/>
	<path fill="#FFFFFF" d="M251.1,68.7H249l-0.5-8.7h-0.1c-1.2,2.8-3.2,6.9-3.6,7.8l-1,0.1c-0.7-1.6-2.1-4.8-3.7-8h-0.1l-0.3,8.8h-2
		l0.5-12.2h2.2c1.8,3.4,3.6,7.6,3.9,8.3h0.1c0.7-1.4,2.5-5.2,3.6-8.3h2.3L251.1,68.7z"/>
	<path fill="#FFFFFF" d="M258.9,56.5h6.7v1.7h-4.5v3.6h3.5l-0.2,1.5h-3.2V67h4.6v1.7h-6.8V56.5z M259.7,54.5l3.7-2.2l0.9,1.6
		l-4.1,1.4L259.7,54.5z"/>
	<path fill="#FFFFFF" d="M276.5,62.4c-0.7-1.2-1.7-2.8-2.3-3.6c-0.4-0.6-0.7-0.8-1.2-0.8v-1.5c0.2,0,0.7-0.1,1-0.1
		c0.9,0,1.4,0.3,2,1.3c0.3,0.4,1.5,2.5,2,3.3h0.1c0.7-1,1.4-2.3,2.7-4.5h2.3c-1.6,2.7-2.8,4.6-3.7,5.9c0.7,1.1,1.9,3.1,2.8,4.2
		c0.4,0.5,0.7,0.6,1.3,0.6v1.4c-0.2,0.1-0.8,0.1-1.1,0.1c-0.7,0-1.1-0.1-1.7-0.8c-0.3-0.4-1.8-2.8-2.7-4.1h-0.1
		c-0.7,1-1.8,2.7-3,4.8h-2.4C273.9,66.5,275.3,64.3,276.5,62.4z"/>
	<path fill="#FFFFFF" d="M290.7,56.5h2.1v12.2h-2.1V56.5z"/>
	<path fill="#FFFFFF" d="M300.3,62.7c0-4.3,2.7-6.4,6.2-6.4c1.1,0,2.7,0.3,3.6,0.9l-0.4,1.7c-0.8-0.5-2-0.8-3-0.8
		c-2.4,0-4.1,1.5-4.1,4.6c0,3,2,4.4,4.2,4.4c1,0,2.2-0.3,3.1-0.7l0.2,1.7c-1.1,0.6-2.4,0.8-3.6,0.8C303.4,68.8,300.3,67,300.3,62.7z
		"/>
	<path fill="#FFFFFF" d="M316.9,62.6c0-3.5,1.9-6.2,5.9-6.2c4,0,5.9,2.7,5.9,6.2c0,3.8-2,6.3-5.9,6.3
		C318.9,68.8,316.9,66.2,316.9,62.6z M326.4,62.5c0-2.9-1.3-4.6-3.6-4.6c-2.4,0-3.6,1.8-3.6,4.6c0,2.8,1.2,4.6,3.6,4.6
		C325.1,67.2,326.4,65.5,326.4,62.5z"/>
</g>
</svg>
