<?xml version="1.0" encoding="utf-8"?>
<!-- Generator: Adobe Illustrator 16.0.0, SVG Export Plug-In . SVG Version: 6.00 Build 0)  -->
<!DOCTYPE svg PUBLIC "-//W3C//DTD SVG 1.1//EN" "http://www.w3.org/Graphics/SVG/1.1/DTD/svg11.dtd">
<svg version="1.1" id="Capa_1" xmlns="http://www.w3.org/2000/svg" xmlns:xlink="http://www.w3.org/1999/xlink" x="0px" y="0px"
	 width="390px" height="70px" viewBox="0 0 390 70" enable-background="new 0 0 390 70" xml:space="preserve">
<g>
	<path fill="#555454" d="M82.565,23.06c0.126,0,0.235,0.044,0.325,0.131l0.76,0.802c-0.558,0.583-1.166,1.106-1.816,1.571
		c-0.653,0.466-1.372,0.864-2.153,1.194c-0.78,0.328-1.636,0.583-2.567,0.762c-0.934,0.18-1.959,0.271-3.074,0.271
		c-1.868,0-3.577-0.32-5.132-0.96c-1.554-0.639-2.888-1.545-4.007-2.718c-1.116-1.173-1.983-2.591-2.597-4.256
		c-0.614-1.664-0.923-3.513-0.923-5.55c0-1.998,0.317-3.822,0.951-5.475c0.635-1.649,1.524-3.068,2.665-4.252
		c1.143-1.188,2.512-2.105,4.111-2.757c1.598-0.653,3.364-0.978,5.29-0.978c1.841,0,3.473,0.279,4.893,0.838
		c1.424,0.557,2.716,1.347,3.884,2.365l-0.592,0.836c-0.102,0.149-0.259,0.225-0.475,0.225c-0.151,0-0.397-0.138-0.742-0.41
		c-0.345-0.275-0.819-0.573-1.427-0.902c-0.608-0.33-1.368-0.631-2.275-0.905c-0.909-0.273-1.996-0.409-3.266-0.409
		c-1.623,0-3.109,0.274-4.46,0.819c-1.354,0.545-2.513,1.328-3.485,2.346c-0.969,1.018-1.728,2.259-2.274,3.724
		c-0.544,1.464-0.818,3.111-0.818,4.934c0,1.863,0.275,3.527,0.827,4.991c0.551,1.467,1.311,2.704,2.273,3.716
		c0.969,1.013,2.104,1.788,3.418,2.329c1.313,0.538,2.733,0.809,4.254,0.809c0.966,0,1.824-0.062,2.58-0.187
		c0.753-0.123,1.45-0.308,2.085-0.557c0.632-0.249,1.223-0.554,1.769-0.913c0.545-0.36,1.085-0.783,1.618-1.267
		c0.064-0.05,0.126-0.089,0.191-0.121C82.437,23.077,82.504,23.06,82.565,23.06"/>
	<path fill="none" stroke="#555454" stroke-width="0.5" stroke-miterlimit="10" d="M82.565,23.06c0.126,0,0.235,0.044,0.325,0.131
		l0.76,0.802c-0.558,0.583-1.166,1.106-1.816,1.571c-0.653,0.466-1.372,0.864-2.153,1.194c-0.78,0.328-1.636,0.583-2.567,0.762
		c-0.934,0.18-1.959,0.271-3.074,0.271c-1.868,0-3.577-0.32-5.132-0.96c-1.554-0.639-2.888-1.545-4.007-2.718
		c-1.116-1.173-1.983-2.591-2.597-4.256c-0.614-1.664-0.923-3.513-0.923-5.55c0-1.998,0.317-3.822,0.951-5.475
		c0.635-1.649,1.524-3.068,2.665-4.252c1.143-1.188,2.512-2.105,4.111-2.757c1.598-0.653,3.364-0.978,5.29-0.978
		c1.841,0,3.473,0.279,4.893,0.838c1.424,0.557,2.716,1.347,3.884,2.365l-0.592,0.836c-0.102,0.149-0.259,0.225-0.475,0.225
		c-0.151,0-0.397-0.138-0.742-0.41c-0.345-0.275-0.819-0.573-1.427-0.902c-0.608-0.33-1.368-0.631-2.275-0.905
		c-0.909-0.273-1.996-0.409-3.266-0.409c-1.623,0-3.109,0.274-4.46,0.819c-1.354,0.545-2.513,1.328-3.485,2.346
		c-0.969,1.018-1.728,2.259-2.274,3.724c-0.544,1.464-0.818,3.111-0.818,4.934c0,1.863,0.275,3.527,0.827,4.991
		c0.551,1.467,1.311,2.704,2.273,3.716c0.969,1.013,2.104,1.788,3.418,2.329c1.313,0.538,2.733,0.809,4.254,0.809
		c0.966,0,1.824-0.062,2.58-0.187c0.753-0.123,1.45-0.308,2.085-0.557c0.632-0.249,1.223-0.554,1.769-0.913
		c0.545-0.36,1.085-0.783,1.618-1.267c0.064-0.05,0.126-0.089,0.191-0.121C82.437,23.077,82.504,23.06,82.565,23.06z"/>
	<path fill="#555454" d="M112.332,14.308c0,2.038-0.309,3.883-0.933,5.541c-0.623,1.656-1.495,3.073-2.627,4.244
		c-1.127,1.177-2.484,2.082-4.064,2.72c-1.582,0.642-3.321,0.959-5.222,0.959c-1.904,0-3.644-0.318-5.219-0.959
		c-1.57-0.638-2.923-1.543-4.05-2.72c-1.132-1.171-2.004-2.588-2.628-4.244c-0.623-1.658-0.931-3.503-0.931-5.541
		c0-2.023,0.309-3.864,0.931-5.52c0.624-1.658,1.497-3.073,2.628-4.247c1.127-1.172,2.48-2.082,4.05-2.727
		c1.575-0.646,3.315-0.969,5.219-0.969c1.9,0,3.64,0.32,5.222,0.96c1.58,0.639,2.937,1.547,4.064,2.727
		c1.132,1.179,2.004,2.598,2.627,4.255C112.023,10.443,112.332,12.285,112.332,14.308 M110.317,14.308
		c0-1.835-0.262-3.488-0.782-4.954c-0.521-1.462-1.26-2.704-2.209-3.723c-0.951-1.018-2.094-1.795-3.426-2.337
		c-1.333-0.542-2.804-0.81-4.414-0.81c-1.601,0-3.065,0.268-4.397,0.81c-1.331,0.542-2.478,1.319-3.435,2.337
		c-0.961,1.02-1.701,2.261-2.228,3.723c-0.526,1.466-0.79,3.118-0.79,4.954c0,1.853,0.263,3.504,0.79,4.964
		c0.527,1.46,1.267,2.697,2.228,3.714c0.958,1.018,2.104,1.795,3.435,2.328c1.332,0.534,2.796,0.8,4.397,0.8
		c1.609,0,3.08-0.266,4.414-0.8c1.332-0.533,2.475-1.311,3.426-2.328c0.949-1.018,1.688-2.254,2.209-3.714
		C110.055,17.812,110.317,16.16,110.317,14.308"/>
	<path fill="none" stroke="#555454" stroke-width="0.5" stroke-miterlimit="10" d="M112.332,14.308c0,2.038-0.309,3.883-0.933,5.541
		c-0.623,1.656-1.495,3.073-2.627,4.244c-1.127,1.177-2.484,2.082-4.064,2.72c-1.582,0.642-3.321,0.959-5.222,0.959
		c-1.904,0-3.644-0.318-5.219-0.959c-1.57-0.638-2.923-1.543-4.05-2.72c-1.132-1.171-2.004-2.588-2.628-4.244
		c-0.623-1.658-0.931-3.503-0.931-5.541c0-2.023,0.309-3.864,0.931-5.52c0.624-1.658,1.497-3.073,2.628-4.247
		c1.127-1.172,2.48-2.082,4.05-2.727c1.575-0.646,3.315-0.969,5.219-0.969c1.9,0,3.64,0.32,5.222,0.96
		c1.58,0.639,2.937,1.547,4.064,2.727c1.132,1.179,2.004,2.598,2.627,4.255C112.023,10.443,112.332,12.285,112.332,14.308z
		 M110.317,14.308c0-1.835-0.262-3.488-0.782-4.954c-0.521-1.462-1.26-2.704-2.209-3.723c-0.951-1.018-2.094-1.795-3.426-2.337
		c-1.333-0.542-2.804-0.81-4.414-0.81c-1.601,0-3.065,0.268-4.397,0.81c-1.331,0.542-2.478,1.319-3.435,2.337
		c-0.961,1.02-1.701,2.261-2.228,3.723c-0.526,1.466-0.79,3.118-0.79,4.954c0,1.853,0.263,3.504,0.79,4.964
		c0.527,1.46,1.267,2.697,2.228,3.714c0.958,1.018,2.104,1.795,3.435,2.328c1.332,0.534,2.796,0.8,4.397,0.8
		c1.609,0,3.08-0.266,4.414-0.8c1.332-0.533,2.475-1.311,3.426-2.328c0.949-1.018,1.688-2.254,2.209-3.714
		C110.055,17.812,110.317,16.16,110.317,14.308z"/>
	<path fill="#555454" d="M139.322,1.142v26.351h-0.914c-0.166,0-0.3-0.027-0.41-0.083c-0.109-0.056-0.21-0.153-0.313-0.289
		l-17.49-22.867c0.036,0.371,0.056,0.729,0.056,1.062v22.178h-1.713V1.142h0.97c0.18,0,0.316,0.023,0.412,0.067
		c0.093,0.042,0.199,0.139,0.311,0.289l17.454,22.812c-0.037-0.373-0.056-0.725-0.056-1.062V1.142H139.322z"/>
	<path fill="none" stroke="#555454" stroke-width="0.5" stroke-miterlimit="10" d="M139.322,1.142v26.351h-0.914
		c-0.166,0-0.3-0.027-0.41-0.083c-0.109-0.056-0.21-0.153-0.313-0.289l-17.49-22.867c0.036,0.371,0.056,0.729,0.056,1.062v22.178
		h-1.713V1.142h0.97c0.18,0,0.316,0.023,0.412,0.067c0.093,0.042,0.199,0.139,0.311,0.289l17.454,22.812
		c-0.037-0.373-0.056-0.725-0.056-1.062V1.142H139.322z"/>
	<polygon fill="#555454" points="164.789,2.764 155.329,2.764 155.329,27.492 153.366,27.492 153.366,2.764 143.849,2.764 
		143.849,1.142 164.789,1.142 	"/>
	<polygon fill="none" stroke="#555454" stroke-width="0.5" stroke-miterlimit="10" points="164.789,2.764 155.329,2.764 
		155.329,27.492 153.366,27.492 153.366,2.764 143.849,2.764 143.849,1.142 164.789,1.142 	"/>
	<path fill="#555454" d="M187.895,27.492h-1.675c-0.217,0-0.396-0.032-0.542-0.102c-0.146-0.069-0.283-0.196-0.41-0.38
		l-8.642-10.691c-0.099-0.135-0.206-0.255-0.313-0.353c-0.109-0.099-0.229-0.177-0.363-0.233c-0.133-0.057-0.291-0.096-0.474-0.121
		c-0.185-0.024-0.41-0.038-0.675-0.038h-3.521v11.918h-1.963V1.142h6.891c3.097,0,5.417,0.589,6.958,1.761
		c1.543,1.173,2.311,2.895,2.311,5.168c0,1.005-0.176,1.924-0.533,2.755c-0.353,0.831-0.865,1.563-1.53,2.188
		c-0.666,0.626-1.471,1.139-2.419,1.536c-0.944,0.398-2.006,0.665-3.188,0.801c0.307,0.185,0.58,0.436,0.821,0.746L187.895,27.492z
		 M175.941,14.16c1.194,0,2.261-0.14,3.207-0.419c0.948-0.28,1.747-0.679,2.401-1.202c0.654-0.521,1.15-1.148,1.492-1.88
		c0.344-0.734,0.515-1.558,0.515-2.478c0-1.874-0.626-3.265-1.874-4.17c-1.253-0.907-3.077-1.359-5.475-1.359h-4.928V14.16H175.941z
		"/>
	<path fill="none" stroke="#555454" stroke-width="0.5" stroke-miterlimit="10" d="M187.895,27.492h-1.675
		c-0.217,0-0.396-0.032-0.542-0.102c-0.146-0.069-0.283-0.196-0.41-0.38l-8.642-10.691c-0.099-0.135-0.206-0.255-0.313-0.353
		c-0.109-0.099-0.229-0.177-0.363-0.233c-0.133-0.057-0.291-0.096-0.474-0.121c-0.185-0.024-0.41-0.038-0.675-0.038h-3.521v11.918
		h-1.963V1.142h6.891c3.097,0,5.417,0.589,6.958,1.761c1.543,1.173,2.311,2.895,2.311,5.168c0,1.005-0.176,1.924-0.533,2.755
		c-0.353,0.831-0.865,1.563-1.53,2.188c-0.666,0.626-1.471,1.139-2.419,1.536c-0.944,0.398-2.006,0.665-3.188,0.801
		c0.307,0.185,0.58,0.436,0.821,0.746L187.895,27.492z M175.941,14.16c1.194,0,2.261-0.14,3.207-0.419
		c0.948-0.28,1.747-0.679,2.401-1.202c0.654-0.521,1.15-1.148,1.492-1.88c0.344-0.734,0.515-1.558,0.515-2.478
		c0-1.874-0.626-3.265-1.874-4.17c-1.253-0.907-3.077-1.359-5.475-1.359h-4.928V14.16H175.941z"/>
	<path fill="#555454" d="M212.907,27.492h-1.502c-0.181,0-0.326-0.046-0.44-0.142c-0.115-0.092-0.2-0.211-0.266-0.36l-3.163-7.654
		h-13.227l-3.16,7.654c-0.05,0.136-0.14,0.255-0.268,0.354c-0.127,0.099-0.278,0.148-0.454,0.148h-1.484l11.017-26.351h1.924
		L212.907,27.492z M206.947,17.921l-5.481-13.314c-0.188-0.435-0.373-0.958-0.554-1.565c-0.074,0.298-0.155,0.58-0.247,0.848
		c-0.088,0.266-0.184,0.511-0.287,0.734l-5.479,13.297H206.947z"/>
	<path fill="none" stroke="#555454" stroke-width="0.5" stroke-miterlimit="10" d="M212.907,27.492h-1.502
		c-0.181,0-0.326-0.046-0.44-0.142c-0.115-0.092-0.2-0.211-0.266-0.36l-3.163-7.654h-13.227l-3.16,7.654
		c-0.05,0.136-0.14,0.255-0.268,0.354c-0.127,0.099-0.278,0.148-0.454,0.148h-1.484l11.017-26.351h1.924L212.907,27.492z
		 M206.947,17.921l-5.481-13.314c-0.188-0.435-0.373-0.958-0.554-1.565c-0.074,0.298-0.155,0.58-0.247,0.848
		c-0.088,0.266-0.184,0.511-0.287,0.734l-5.479,13.297H206.947z"/>
	<polygon fill="#555454" points="232.224,2.764 222.765,2.764 222.765,27.492 220.803,27.492 220.803,2.764 211.285,2.764 
		211.285,1.142 232.224,1.142 	"/>
	<polygon fill="none" stroke="#555454" stroke-width="0.5" stroke-miterlimit="10" points="232.224,2.764 222.765,2.764 
		222.765,27.492 220.803,27.492 220.803,2.764 211.285,2.764 211.285,1.142 232.224,1.142 	"/>
	<path fill="#555454" d="M254.589,27.492h-1.503c-0.179,0-0.325-0.046-0.438-0.142c-0.116-0.092-0.203-0.211-0.268-0.36
		l-3.158-7.654h-13.231l-3.159,7.654c-0.049,0.136-0.138,0.255-0.265,0.354c-0.128,0.099-0.28,0.148-0.457,0.148h-1.483
		l11.019-26.351h1.925L254.589,27.492z M248.632,17.921l-5.483-13.314c-0.188-0.435-0.37-0.958-0.551-1.565
		c-0.075,0.298-0.159,0.58-0.249,0.848c-0.085,0.266-0.182,0.511-0.285,0.734l-5.48,13.297H248.632z"/>
	<path fill="none" stroke="#555454" stroke-width="0.5" stroke-miterlimit="10" d="M254.589,27.492h-1.503
		c-0.179,0-0.325-0.046-0.438-0.142c-0.116-0.092-0.203-0.211-0.268-0.36l-3.158-7.654h-13.231l-3.159,7.654
		c-0.049,0.136-0.138,0.255-0.265,0.354c-0.128,0.099-0.28,0.148-0.457,0.148h-1.483l11.019-26.351h1.925L254.589,27.492z
		 M248.632,17.921l-5.483-13.314c-0.188-0.435-0.37-0.958-0.551-1.565c-0.075,0.298-0.159,0.58-0.249,0.848
		c-0.085,0.266-0.182,0.511-0.285,0.734l-5.48,13.297H248.632z"/>
	<path fill="#555454" d="M277.906,23.06c0.127,0,0.235,0.044,0.326,0.131l0.759,0.802c-0.558,0.583-1.165,1.106-1.815,1.571
		c-0.653,0.466-1.373,0.864-2.153,1.194c-0.779,0.328-1.635,0.583-2.567,0.762c-0.933,0.18-1.958,0.271-3.073,0.271
		c-1.867,0-3.578-0.32-5.134-0.96c-1.552-0.639-2.887-1.545-4.006-2.718c-1.115-1.173-1.982-2.591-2.597-4.256
		c-0.616-1.664-0.923-3.513-0.923-5.55c0-1.998,0.315-3.822,0.952-5.475c0.634-1.649,1.524-3.068,2.663-4.252
		c1.144-1.188,2.514-2.105,4.112-2.757c1.597-0.653,3.363-0.978,5.29-0.978c1.841,0,3.474,0.279,4.891,0.838
		c1.424,0.557,2.718,1.347,3.888,2.365l-0.594,0.836c-0.103,0.149-0.26,0.225-0.473,0.225c-0.153,0-0.401-0.138-0.745-0.41
		c-0.343-0.275-0.817-0.573-1.428-0.902c-0.606-0.33-1.365-0.631-2.272-0.905c-0.91-0.273-1.995-0.409-3.267-0.409
		c-1.622,0-3.111,0.274-4.461,0.819c-1.353,0.545-2.511,1.328-3.482,2.346c-0.972,1.018-1.733,2.259-2.276,3.724
		c-0.544,1.464-0.817,3.111-0.817,4.934c0,1.863,0.276,3.527,0.828,4.991c0.55,1.467,1.309,2.704,2.273,3.716
		c0.966,1.013,2.104,1.788,3.416,2.329c1.314,0.538,2.732,0.809,4.255,0.809c0.964,0,1.824-0.062,2.579-0.187
		c0.752-0.123,1.45-0.308,2.086-0.557c0.631-0.249,1.224-0.554,1.768-0.913c0.547-0.36,1.084-0.783,1.617-1.267
		c0.064-0.05,0.126-0.089,0.193-0.121C277.779,23.077,277.845,23.06,277.906,23.06"/>
	<path fill="none" stroke="#555454" stroke-width="0.5" stroke-miterlimit="10" d="M277.906,23.06c0.127,0,0.235,0.044,0.326,0.131
		l0.759,0.802c-0.558,0.583-1.165,1.106-1.815,1.571c-0.653,0.466-1.373,0.864-2.153,1.194c-0.779,0.328-1.635,0.583-2.567,0.762
		c-0.933,0.18-1.958,0.271-3.073,0.271c-1.867,0-3.578-0.32-5.134-0.96c-1.552-0.639-2.887-1.545-4.006-2.718
		c-1.115-1.173-1.982-2.591-2.597-4.256c-0.616-1.664-0.923-3.513-0.923-5.55c0-1.998,0.315-3.822,0.952-5.475
		c0.634-1.649,1.524-3.068,2.663-4.252c1.144-1.188,2.514-2.105,4.112-2.757c1.597-0.653,3.363-0.978,5.29-0.978
		c1.841,0,3.474,0.279,4.891,0.838c1.424,0.557,2.718,1.347,3.888,2.365l-0.594,0.836c-0.103,0.149-0.26,0.225-0.473,0.225
		c-0.153,0-0.401-0.138-0.745-0.41c-0.343-0.275-0.817-0.573-1.428-0.902c-0.606-0.33-1.365-0.631-2.272-0.905
		c-0.91-0.273-1.995-0.409-3.267-0.409c-1.622,0-3.111,0.274-4.461,0.819c-1.353,0.545-2.511,1.328-3.482,2.346
		c-0.972,1.018-1.733,2.259-2.276,3.724c-0.544,1.464-0.817,3.111-0.817,4.934c0,1.863,0.276,3.527,0.828,4.991
		c0.55,1.467,1.309,2.704,2.273,3.716c0.966,1.013,2.104,1.788,3.416,2.329c1.314,0.538,2.732,0.809,4.255,0.809
		c0.964,0,1.824-0.062,2.579-0.187c0.752-0.123,1.45-0.308,2.086-0.557c0.631-0.249,1.224-0.554,1.768-0.913
		c0.547-0.36,1.084-0.783,1.617-1.267c0.064-0.05,0.126-0.089,0.193-0.121C277.779,23.077,277.845,23.06,277.906,23.06z"/>
	<rect x="284.206" y="1.142" fill="#555454" width="1.961" height="26.351"/>
	
		<rect x="284.206" y="1.142" fill="none" stroke="#555454" stroke-width="0.5" stroke-miterlimit="10" width="1.961" height="26.351"/>
	<path fill="#555454" d="M318.048,14.308c0,2.038-0.313,3.883-0.934,5.541c-0.623,1.656-1.496,3.073-2.628,4.244
		c-1.129,1.177-2.484,2.082-4.064,2.72c-1.579,0.642-3.319,0.959-5.223,0.959c-1.901,0-3.641-0.318-5.216-0.959
		c-1.57-0.638-2.925-1.543-4.053-2.72c-1.131-1.171-2.005-2.588-2.626-4.244c-0.624-1.658-0.935-3.503-0.935-5.541
		c0-2.023,0.311-3.864,0.935-5.52c0.621-1.658,1.495-3.073,2.626-4.247c1.128-1.172,2.482-2.082,4.053-2.727
		c1.575-0.646,3.314-0.969,5.216-0.969c1.903,0,3.644,0.32,5.223,0.96c1.58,0.639,2.936,1.547,4.064,2.727
		c1.132,1.179,2.005,2.598,2.628,4.255C317.735,10.443,318.048,12.285,318.048,14.308 M316.028,14.308
		c0-1.835-0.26-3.488-0.78-4.954c-0.52-1.462-1.26-2.704-2.207-3.723c-0.952-1.018-2.095-1.795-3.428-2.337
		c-1.331-0.542-2.804-0.81-4.414-0.81c-1.6,0-3.064,0.268-4.395,0.81c-1.333,0.542-2.479,1.319-3.438,2.337
		c-0.959,1.02-1.699,2.261-2.227,3.723c-0.527,1.466-0.789,3.118-0.789,4.954c0,1.853,0.262,3.504,0.789,4.964
		c0.527,1.46,1.268,2.697,2.227,3.714s2.104,1.795,3.438,2.328c1.33,0.534,2.795,0.8,4.395,0.8c1.61,0,3.083-0.266,4.414-0.8
		c1.333-0.533,2.476-1.311,3.428-2.328c0.947-1.018,1.688-2.254,2.207-3.714C315.769,17.812,316.028,16.16,316.028,14.308"/>
	<path fill="none" stroke="#555454" stroke-width="0.5" stroke-miterlimit="10" d="M318.048,14.308c0,2.038-0.313,3.883-0.934,5.541
		c-0.623,1.656-1.496,3.073-2.628,4.244c-1.129,1.177-2.484,2.082-4.064,2.72c-1.579,0.642-3.319,0.959-5.223,0.959
		c-1.901,0-3.641-0.318-5.216-0.959c-1.57-0.638-2.925-1.543-4.053-2.72c-1.131-1.171-2.005-2.588-2.626-4.244
		c-0.624-1.658-0.935-3.503-0.935-5.541c0-2.023,0.311-3.864,0.935-5.52c0.621-1.658,1.495-3.073,2.626-4.247
		c1.128-1.172,2.482-2.082,4.053-2.727c1.575-0.646,3.314-0.969,5.216-0.969c1.903,0,3.644,0.32,5.223,0.96
		c1.58,0.639,2.936,1.547,4.064,2.727c1.132,1.179,2.005,2.598,2.628,4.255C317.735,10.443,318.048,12.285,318.048,14.308z
		 M316.028,14.308c0-1.835-0.26-3.488-0.78-4.954c-0.52-1.462-1.26-2.704-2.207-3.723c-0.952-1.018-2.095-1.795-3.428-2.337
		c-1.331-0.542-2.804-0.81-4.414-0.81c-1.6,0-3.064,0.268-4.395,0.81c-1.333,0.542-2.479,1.319-3.438,2.337
		c-0.959,1.02-1.699,2.261-2.227,3.723c-0.527,1.466-0.789,3.118-0.789,4.954c0,1.853,0.262,3.504,0.789,4.964
		c0.527,1.46,1.268,2.697,2.227,3.714s2.104,1.795,3.438,2.328c1.33,0.534,2.795,0.8,4.395,0.8c1.61,0,3.083-0.266,4.414-0.8
		c1.333-0.533,2.476-1.311,3.428-2.328c0.947-1.018,1.688-2.254,2.207-3.714C315.769,17.812,316.028,16.16,316.028,14.308z"/>
	<path fill="#555454" d="M345.036,1.142v26.351h-0.916c-0.163,0-0.3-0.027-0.408-0.083s-0.209-0.153-0.313-0.289L325.908,4.253
		c0.036,0.371,0.056,0.729,0.056,1.062v22.178h-1.712V1.142h0.969c0.181,0,0.317,0.023,0.411,0.067
		c0.094,0.042,0.199,0.139,0.313,0.289l17.455,22.812c-0.037-0.373-0.056-0.725-0.056-1.062V1.142H345.036z"/>
	<path fill="none" stroke="#555454" stroke-width="0.5" stroke-miterlimit="10" d="M345.036,1.142v26.351h-0.916
		c-0.163,0-0.3-0.027-0.408-0.083s-0.209-0.153-0.313-0.289L325.908,4.253c0.036,0.371,0.056,0.729,0.056,1.062v22.178h-1.712V1.142
		h0.969c0.181,0,0.317,0.023,0.411,0.067c0.094,0.042,0.199,0.139,0.313,0.289l17.455,22.812c-0.037-0.373-0.056-0.725-0.056-1.062
		V1.142H345.036z"/>
	<polygon fill="#555454" points="369.166,25.91 369.131,27.492 352.991,27.492 352.991,1.142 369.131,1.142 369.131,2.726 
		354.951,2.726 354.951,13.378 366.751,13.378 366.751,14.924 354.951,14.924 354.951,25.91 	"/>
	<polygon fill="none" stroke="#555454" stroke-width="0.5" stroke-miterlimit="10" points="369.166,25.91 369.131,27.492 
		352.991,27.492 352.991,1.142 369.131,1.142 369.131,2.726 354.951,2.726 354.951,13.378 366.751,13.378 366.751,14.924 
		354.951,14.924 354.951,25.91 	"/>
	<path fill="#555454" d="M388.144,4.346c-0.114,0.211-0.278,0.316-0.495,0.316c-0.162,0-0.376-0.115-0.636-0.343
		c-0.263-0.23-0.612-0.486-1.059-0.764c-0.441-0.281-0.996-0.537-1.663-0.773c-0.665-0.237-1.486-0.354-2.467-0.354
		c-0.974,0-1.834,0.138-2.577,0.41c-0.743,0.273-1.364,0.646-1.863,1.117c-0.502,0.471-0.885,1.018-1.144,1.638
		c-0.262,0.621-0.391,1.273-0.391,1.957c0,0.893,0.192,1.631,0.581,2.215c0.383,0.584,0.896,1.08,1.532,1.489
		c0.635,0.41,1.353,0.756,2.16,1.034c0.803,0.28,1.633,0.558,2.483,0.829c0.849,0.274,1.677,0.575,2.483,0.903
		c0.808,0.329,1.523,0.741,2.161,1.238c0.634,0.499,1.146,1.109,1.53,1.834c0.389,0.726,0.582,1.63,0.582,2.71
		c0,1.106-0.193,2.144-0.582,3.12c-0.385,0.973-0.945,1.822-1.684,2.542c-0.735,0.722-1.635,1.289-2.7,1.702
		c-1.067,0.416-2.287,0.626-3.655,0.626c-1.775,0-3.306-0.309-4.588-0.923c-1.28-0.615-2.405-1.456-3.368-2.524l0.532-0.818
		c0.151-0.188,0.329-0.28,0.534-0.28c0.112,0,0.258,0.073,0.436,0.223c0.179,0.15,0.393,0.332,0.647,0.549
		c0.255,0.218,0.558,0.452,0.914,0.708c0.355,0.254,0.77,0.49,1.235,0.708c0.472,0.217,1.01,0.401,1.622,0.55
		c0.606,0.148,1.3,0.224,2.071,0.224c1.065,0,2.021-0.159,2.855-0.475c0.836-0.317,1.545-0.75,2.122-1.294
		c0.578-0.547,1.021-1.195,1.323-1.945c0.304-0.751,0.456-1.554,0.456-2.413c0-0.93-0.191-1.699-0.579-2.299
		c-0.388-0.602-0.899-1.103-1.534-1.509c-0.632-0.402-1.355-0.74-2.159-1.015c-0.805-0.272-1.634-0.54-2.484-0.8
		c-0.849-0.26-1.677-0.553-2.48-0.875c-0.809-0.322-1.528-0.735-2.164-1.238c-0.634-0.502-1.146-1.129-1.53-1.881
		c-0.387-0.75-0.582-1.69-0.582-2.821c0-0.882,0.171-1.731,0.513-2.551c0.348-0.819,0.845-1.541,1.504-2.17
		c0.659-0.628,1.478-1.128,2.449-1.507c0.968-0.379,2.076-0.568,3.319-0.568c1.396,0,2.649,0.217,3.762,0.652
		c1.106,0.435,2.121,1.1,3.034,1.993L388.144,4.346z"/>
	<path fill="none" stroke="#555454" stroke-width="0.5" stroke-miterlimit="10" d="M388.144,4.346
		c-0.114,0.211-0.278,0.316-0.495,0.316c-0.162,0-0.376-0.115-0.636-0.343c-0.263-0.23-0.612-0.486-1.059-0.764
		c-0.441-0.281-0.996-0.537-1.663-0.773c-0.665-0.237-1.486-0.354-2.467-0.354c-0.974,0-1.834,0.138-2.577,0.41
		c-0.743,0.273-1.364,0.646-1.863,1.117c-0.502,0.471-0.885,1.018-1.144,1.638c-0.262,0.621-0.391,1.273-0.391,1.957
		c0,0.893,0.192,1.631,0.581,2.215c0.383,0.584,0.896,1.08,1.532,1.489c0.635,0.41,1.353,0.756,2.16,1.034
		c0.803,0.28,1.633,0.558,2.483,0.829c0.849,0.274,1.677,0.575,2.483,0.903c0.808,0.329,1.523,0.741,2.161,1.238
		c0.634,0.499,1.146,1.109,1.53,1.834c0.389,0.726,0.582,1.63,0.582,2.71c0,1.106-0.193,2.144-0.582,3.12
		c-0.385,0.973-0.945,1.822-1.684,2.542c-0.735,0.722-1.635,1.289-2.7,1.702c-1.067,0.416-2.287,0.626-3.655,0.626
		c-1.775,0-3.306-0.309-4.588-0.923c-1.28-0.615-2.405-1.456-3.368-2.524l0.532-0.818c0.151-0.188,0.329-0.28,0.534-0.28
		c0.112,0,0.258,0.073,0.436,0.223c0.179,0.15,0.393,0.332,0.647,0.549c0.255,0.218,0.558,0.452,0.914,0.708
		c0.355,0.254,0.77,0.49,1.235,0.708c0.472,0.217,1.01,0.401,1.622,0.55c0.606,0.148,1.3,0.224,2.071,0.224
		c1.065,0,2.021-0.159,2.855-0.475c0.836-0.317,1.545-0.75,2.122-1.294c0.578-0.547,1.021-1.195,1.323-1.945
		c0.304-0.751,0.456-1.554,0.456-2.413c0-0.93-0.191-1.699-0.579-2.299c-0.388-0.602-0.899-1.103-1.534-1.509
		c-0.632-0.402-1.355-0.74-2.159-1.015c-0.805-0.272-1.634-0.54-2.484-0.8c-0.849-0.26-1.677-0.553-2.48-0.875
		c-0.809-0.322-1.528-0.735-2.164-1.238c-0.634-0.502-1.146-1.129-1.53-1.881c-0.387-0.75-0.582-1.69-0.582-2.821
		c0-0.882,0.171-1.731,0.513-2.551c0.348-0.819,0.845-1.541,1.504-2.17c0.659-0.628,1.478-1.128,2.449-1.507
		c0.968-0.379,2.076-0.568,3.319-0.568c1.396,0,2.649,0.217,3.762,0.652c1.106,0.435,2.121,1.1,3.034,1.993L388.144,4.346z"/>
	<path fill="#C7C8CA" d="M89.502,68.408h-3.424c-0.399,0-0.718-0.095-0.963-0.293c-0.243-0.192-0.424-0.435-0.548-0.731
		l-3.059-7.736H66.817l-3.059,7.736c-0.094,0.263-0.268,0.504-0.525,0.711c-0.26,0.212-0.581,0.313-0.963,0.313h-3.425
		l13.088-32.029h4.481L89.502,68.408z M80.273,56.519l-5.138-13.029c-0.154-0.393-0.312-0.843-0.481-1.353
		c-0.169-0.513-0.33-1.064-0.483-1.645c-0.319,1.206-0.647,2.215-0.981,3.019l-5.138,13.008H80.273z"/>
	<path fill="none" stroke="#C7C8CA" stroke-width="0.5" stroke-miterlimit="10" d="M89.502,68.408h-3.424
		c-0.399,0-0.718-0.095-0.963-0.293c-0.243-0.192-0.424-0.435-0.548-0.731l-3.059-7.736H66.817l-3.059,7.736
		c-0.094,0.263-0.268,0.504-0.525,0.711c-0.26,0.212-0.581,0.313-0.963,0.313h-3.425l13.088-32.029h4.481L89.502,68.408z
		 M80.273,56.519l-5.138-13.029c-0.154-0.393-0.312-0.843-0.481-1.353c-0.169-0.513-0.33-1.064-0.483-1.645
		c-0.319,1.206-0.647,2.215-0.981,3.019l-5.138,13.008H80.273z"/>
	<path fill="#C7C8CA" d="M104.26,36.379c2.012,0,3.745,0.196,5.198,0.584c1.454,0.388,2.65,0.938,3.588,1.65
		c0.934,0.718,1.624,1.594,2.067,2.625c0.439,1.037,0.663,2.202,0.663,3.501c0,0.79-0.127,1.547-0.379,2.268
		c-0.25,0.725-0.629,1.398-1.13,2.021c-0.502,0.628-1.14,1.191-1.907,1.691c-0.77,0.5-1.67,0.904-2.708,1.215
		c2.406,0.45,4.218,1.285,5.425,2.516c1.213,1.229,1.818,2.845,1.818,4.837c0,1.357-0.256,2.596-0.766,3.713
		c-0.509,1.119-1.256,2.079-2.238,2.884s-2.191,1.426-3.621,1.865c-1.432,0.442-3.062,0.66-4.89,0.66H93.82V36.379H104.26z
		 M98.229,39.801v10.928h5.848c1.25,0,2.334-0.136,3.258-0.402c0.918-0.268,1.681-0.639,2.281-1.115
		c0.604-0.476,1.045-1.054,1.337-1.735c0.289-0.677,0.433-1.418,0.433-2.225c0-1.892-0.581-3.273-1.736-4.146
		c-1.156-0.868-2.956-1.305-5.391-1.305H98.229z M105.312,64.965c1.264,0,2.353-0.14,3.265-0.424
		c0.915-0.279,1.665-0.68,2.253-1.194c0.584-0.517,1.016-1.127,1.29-1.834c0.271-0.71,0.409-1.487,0.409-2.335
		c0-1.658-0.602-2.961-1.804-3.923c-1.204-0.963-3.008-1.443-5.414-1.443h-7.083v11.153H105.312z"/>
	<path fill="none" stroke="#C7C8CA" stroke-width="0.5" stroke-miterlimit="10" d="M104.26,36.379c2.012,0,3.745,0.196,5.198,0.584
		c1.454,0.388,2.65,0.938,3.588,1.65c0.934,0.718,1.624,1.594,2.067,2.625c0.439,1.037,0.663,2.202,0.663,3.501
		c0,0.79-0.127,1.547-0.379,2.268c-0.25,0.725-0.629,1.398-1.13,2.021c-0.502,0.628-1.14,1.191-1.907,1.691
		c-0.77,0.5-1.67,0.904-2.708,1.215c2.406,0.45,4.218,1.285,5.425,2.516c1.213,1.229,1.818,2.845,1.818,4.837
		c0,1.357-0.256,2.596-0.766,3.713c-0.509,1.119-1.256,2.079-2.238,2.884s-2.191,1.426-3.621,1.865
		c-1.432,0.442-3.062,0.66-4.89,0.66H93.82V36.379H104.26z M98.229,39.801v10.928h5.848c1.25,0,2.334-0.136,3.258-0.402
		c0.918-0.268,1.681-0.639,2.281-1.115c0.604-0.476,1.045-1.054,1.337-1.735c0.289-0.677,0.433-1.418,0.433-2.225
		c0-1.892-0.581-3.273-1.736-4.146c-1.156-0.868-2.956-1.305-5.391-1.305H98.229z M105.312,64.965c1.264,0,2.353-0.14,3.265-0.424
		c0.915-0.279,1.665-0.68,2.253-1.194c0.584-0.517,1.016-1.127,1.29-1.834c0.271-0.71,0.409-1.487,0.409-2.335
		c0-1.658-0.602-2.961-1.804-3.923c-1.204-0.963-3.008-1.443-5.414-1.443h-7.083v11.153H105.312z"/>
	<rect x="123.358" y="36.379" fill="#C7C8CA" width="4.433" height="32.029"/>
	
		<rect x="123.358" y="36.379" fill="none" stroke="#C7C8CA" stroke-width="0.5" stroke-miterlimit="10" width="4.433" height="32.029"/>
	<polygon fill="#C7C8CA" points="156.348,64.877 156.326,68.407 136.151,68.407 136.151,36.379 156.326,36.379 156.326,39.913 
		140.584,39.913 140.584,50.548 153.332,50.548 153.332,53.945 140.584,53.945 140.584,64.877 	"/>
	<polygon fill="none" stroke="#C7C8CA" stroke-width="0.5" stroke-miterlimit="10" points="156.348,64.877 156.326,68.407 
		136.151,68.407 136.151,36.379 156.326,36.379 156.326,39.913 140.584,39.913 140.584,50.548 153.332,50.548 153.332,53.945 
		140.584,53.945 140.584,64.877 	"/>
	<path fill="#C7C8CA" d="M186.73,68.408h-3.931c-0.805,0-1.402-0.307-1.781-0.918l-8.501-11.439
		c-0.255-0.361-0.532-0.616-0.832-0.772c-0.299-0.156-0.758-0.236-1.384-0.236h-3.355v13.366h-4.413V36.379h9.256
		c2.071,0,3.859,0.206,5.369,0.618c1.506,0.408,2.752,0.999,3.734,1.774c0.981,0.774,1.709,1.709,2.182,2.803
		c0.471,1.095,0.707,2.323,0.707,3.677c0,1.132-0.184,2.193-0.547,3.177c-0.364,0.982-0.896,1.868-1.587,2.649
		c-0.697,0.782-1.539,1.447-2.536,1.998c-0.997,0.552-2.13,0.971-3.394,1.254c0.564,0.313,1.052,0.766,1.464,1.36L186.73,68.408z
		 M171.606,51.892c1.281,0,2.411-0.151,3.393-0.459c0.982-0.306,1.803-0.737,2.465-1.294c0.665-0.559,1.164-1.227,1.498-2.001
		c0.336-0.774,0.504-1.634,0.504-2.569c0-1.908-0.641-3.346-1.92-4.318c-1.28-0.965-3.196-1.449-5.756-1.449h-4.844v12.091H171.606z
		"/>
	<path fill="none" stroke="#C7C8CA" stroke-width="0.5" stroke-miterlimit="10" d="M186.73,68.408h-3.931
		c-0.805,0-1.402-0.307-1.781-0.918l-8.501-11.439c-0.255-0.361-0.532-0.616-0.832-0.772c-0.299-0.156-0.758-0.236-1.384-0.236
		h-3.355v13.366h-4.413V36.379h9.256c2.071,0,3.859,0.206,5.369,0.618c1.506,0.408,2.752,0.999,3.734,1.774
		c0.981,0.774,1.709,1.709,2.182,2.803c0.471,1.095,0.707,2.323,0.707,3.677c0,1.132-0.184,2.193-0.547,3.177
		c-0.364,0.982-0.896,1.868-1.587,2.649c-0.697,0.782-1.539,1.447-2.536,1.998c-0.997,0.552-2.13,0.971-3.394,1.254
		c0.564,0.313,1.052,0.766,1.464,1.36L186.73,68.408z M171.606,51.892c1.281,0,2.411-0.151,3.393-0.459
		c0.982-0.306,1.803-0.737,2.465-1.294c0.665-0.559,1.164-1.227,1.498-2.001c0.336-0.774,0.504-1.634,0.504-2.569
		c0-1.908-0.641-3.346-1.92-4.318c-1.28-0.965-3.196-1.449-5.756-1.449h-4.844v12.091H171.606z"/>
	<polygon fill="#C7C8CA" points="212.227,40.022 201.624,40.022 201.624,68.408 197.216,68.408 197.216,40.022 186.592,40.022 
		186.592,36.379 212.227,36.379 	"/>
	<polygon fill="none" stroke="#C7C8CA" stroke-width="0.5" stroke-miterlimit="10" points="212.227,40.022 201.624,40.022 
		201.624,68.408 197.216,68.408 197.216,40.022 186.592,40.022 186.592,36.379 212.227,36.379 	"/>
	<path fill="#C7C8CA" d="M240.485,68.408h-3.424c-0.397,0-0.718-0.095-0.961-0.293c-0.244-0.192-0.425-0.435-0.549-0.731
		l-3.061-7.736H217.8l-3.062,7.736c-0.092,0.263-0.266,0.504-0.522,0.711c-0.261,0.212-0.581,0.313-0.963,0.313h-3.425l13.09-32.029
		h4.479L240.485,68.408z M231.257,56.519l-5.139-13.029c-0.152-0.393-0.313-0.843-0.482-1.353c-0.169-0.513-0.327-1.064-0.48-1.645
		c-0.32,1.206-0.648,2.215-0.981,3.019l-5.139,13.008H231.257z"/>
	<path fill="none" stroke="#C7C8CA" stroke-width="0.5" stroke-miterlimit="10" d="M240.485,68.408h-3.424
		c-0.397,0-0.718-0.095-0.961-0.293c-0.244-0.192-0.425-0.435-0.549-0.731l-3.061-7.736H217.8l-3.062,7.736
		c-0.092,0.263-0.266,0.504-0.522,0.711c-0.261,0.212-0.581,0.313-0.963,0.313h-3.425l13.09-32.029h4.479L240.485,68.408z
		 M231.257,56.519l-5.139-13.029c-0.152-0.393-0.313-0.843-0.482-1.353c-0.169-0.513-0.327-1.064-0.48-1.645
		c-0.32,1.206-0.648,2.215-0.981,3.019l-5.139,13.008H231.257z"/>
	<path fill="#C7C8CA" d="M261.548,41.386c-0.138,0.226-0.287,0.393-0.448,0.504c-0.159,0.109-0.352,0.164-0.582,0.164
		c-0.259,0-0.562-0.122-0.912-0.376c-0.353-0.255-0.79-0.53-1.316-0.84c-0.526-0.304-1.156-0.582-1.897-0.838
		c-0.735-0.252-1.63-0.379-2.679-0.379c-0.991,0-1.865,0.132-2.619,0.39c-0.753,0.263-1.386,0.615-1.895,1.062
		c-0.512,0.447-0.896,0.973-1.155,1.573c-0.259,0.606-0.389,1.257-0.389,1.96c0,0.895,0.228,1.633,0.675,2.221
		c0.448,0.591,1.043,1.094,1.783,1.511c0.736,0.419,1.576,0.78,2.513,1.083c0.937,0.308,1.896,0.623,2.877,0.951
		c0.983,0.327,1.942,0.699,2.879,1.106c0.938,0.41,1.773,0.928,2.515,1.554c0.735,0.625,1.331,1.392,1.779,2.3
		c0.45,0.911,0.675,2.029,0.675,3.355c0,1.4-0.244,2.715-0.73,3.944c-0.486,1.23-1.201,2.299-2.138,3.209
		c-0.938,0.908-2.085,1.62-3.45,2.146c-1.359,0.519-2.912,0.781-4.646,0.781c-2.13,0-4.065-0.378-5.802-1.129
		c-1.735-0.755-3.224-1.768-4.455-3.051l1.279-2.06c0.119-0.165,0.27-0.3,0.442-0.41c0.176-0.112,0.374-0.17,0.586-0.17
		c0.196,0,0.423,0.079,0.672,0.234c0.254,0.159,0.541,0.354,0.859,0.594c0.319,0.24,0.684,0.5,1.096,0.781
		c0.41,0.283,0.879,0.548,1.403,0.784c0.528,0.24,1.12,0.436,1.796,0.591c0.667,0.158,1.423,0.234,2.26,0.234
		c1.052,0,1.988-0.142,2.811-0.422c0.822-0.284,1.519-0.684,2.091-1.196c0.572-0.514,1.007-1.129,1.313-1.844
		c0.305-0.718,0.457-1.515,0.457-2.391c0-0.973-0.223-1.766-0.673-2.383c-0.451-0.618-1.039-1.134-1.769-1.555
		c-0.734-0.416-1.571-0.771-2.518-1.062c-0.94-0.289-1.9-0.586-2.876-0.891c-0.973-0.307-1.938-0.662-2.877-1.062
		c-0.945-0.406-1.784-0.926-2.514-1.566c-0.732-0.638-1.325-1.442-1.77-2.403c-0.453-0.96-0.679-2.148-0.679-3.564
		c0-1.132,0.226-2.228,0.679-3.286c0.444-1.058,1.101-1.996,1.961-2.814c0.861-0.82,1.917-1.475,3.176-1.966
		c1.255-0.494,2.702-0.739,4.329-0.739c1.83,0,3.491,0.283,4.993,0.851c1.498,0.565,2.818,1.384,3.963,2.456L261.548,41.386z"/>
	<path fill="none" stroke="#C7C8CA" stroke-width="0.5" stroke-miterlimit="10" d="M261.548,41.386
		c-0.138,0.226-0.287,0.393-0.448,0.504c-0.159,0.109-0.352,0.164-0.582,0.164c-0.259,0-0.562-0.122-0.912-0.376
		c-0.353-0.255-0.79-0.53-1.316-0.84c-0.526-0.304-1.156-0.582-1.897-0.838c-0.735-0.252-1.63-0.379-2.679-0.379
		c-0.991,0-1.865,0.132-2.619,0.39c-0.753,0.263-1.386,0.615-1.895,1.062c-0.512,0.447-0.896,0.973-1.155,1.573
		c-0.259,0.606-0.389,1.257-0.389,1.96c0,0.895,0.228,1.633,0.675,2.221c0.448,0.591,1.043,1.094,1.783,1.511
		c0.736,0.419,1.576,0.78,2.513,1.083c0.937,0.308,1.896,0.623,2.877,0.951c0.983,0.327,1.942,0.699,2.879,1.106
		c0.938,0.41,1.773,0.928,2.515,1.554c0.735,0.625,1.331,1.392,1.779,2.3c0.45,0.911,0.675,2.029,0.675,3.355
		c0,1.4-0.244,2.715-0.73,3.944c-0.486,1.23-1.201,2.299-2.138,3.209c-0.938,0.908-2.085,1.62-3.45,2.146
		c-1.359,0.519-2.912,0.781-4.646,0.781c-2.13,0-4.065-0.378-5.802-1.129c-1.735-0.755-3.224-1.768-4.455-3.051l1.279-2.06
		c0.119-0.165,0.27-0.3,0.442-0.41c0.176-0.112,0.374-0.17,0.586-0.17c0.196,0,0.423,0.079,0.672,0.234
		c0.254,0.159,0.541,0.354,0.859,0.594c0.319,0.24,0.684,0.5,1.096,0.781c0.41,0.283,0.879,0.548,1.403,0.784
		c0.528,0.24,1.12,0.436,1.796,0.591c0.667,0.158,1.423,0.234,2.26,0.234c1.052,0,1.988-0.142,2.811-0.422
		c0.822-0.284,1.519-0.684,2.091-1.196c0.572-0.514,1.007-1.129,1.313-1.844c0.305-0.718,0.457-1.515,0.457-2.391
		c0-0.973-0.223-1.766-0.673-2.383c-0.451-0.618-1.039-1.134-1.769-1.555c-0.734-0.416-1.571-0.771-2.518-1.062
		c-0.94-0.289-1.9-0.586-2.876-0.891c-0.973-0.307-1.938-0.662-2.877-1.062c-0.945-0.406-1.784-0.926-2.514-1.566
		c-0.732-0.638-1.325-1.442-1.77-2.403c-0.453-0.96-0.679-2.148-0.679-3.564c0-1.132,0.226-2.228,0.679-3.286
		c0.444-1.058,1.101-1.996,1.961-2.814c0.861-0.82,1.917-1.475,3.176-1.966c1.255-0.494,2.702-0.739,4.329-0.739
		c1.83,0,3.491,0.283,4.993,0.851c1.498,0.565,2.818,1.384,3.963,2.456L261.548,41.386z"/>
	<path fill="#6A64AA" d="M36.836,61.515h-7.991l-2.459,6.188c-0.329,0.832,0.143,1.508,1.048,1.508h12.912
		c0.907,0,1.916-0.676,2.246-1.508L51.58,45.08c0.329-0.83-0.141-1.508-1.047-1.508h-4.919l-6.529,16.435
		C38.753,60.836,37.743,61.515,36.836,61.515"/>
	<path fill="#483C6F" d="M35.374,45.08l-6.529,16.435h7.991c0.907,0,1.917-0.678,2.248-1.508l6.529-16.435H37.62
		C36.713,43.572,35.703,44.253,35.374,45.08"/>
	<path fill="#0066B0" d="M30.303,51.098H22.31l-2.458,6.186c-0.329,0.829,0.142,1.51,1.046,1.51h12.914
		c0.905,0,1.916-0.681,2.246-1.51l8.986-22.619c0.33-0.831-0.141-1.509-1.047-1.509h-4.92l-6.53,16.434
		C32.217,50.417,31.208,51.098,30.303,51.098"/>
	<path fill="#1C3B6F" d="M28.839,34.664l-6.53,16.434h7.994c0.905,0,1.915-0.68,2.245-1.509l6.53-16.434h-7.992
		C30.179,33.155,29.168,33.834,28.839,34.664"/>
	<path fill="#3EB38F" d="M23.768,40.679h-7.993l-2.458,6.187c-0.33,0.83,0.142,1.509,1.047,1.509h12.913
		c0.907,0,1.916-0.679,2.246-1.509l8.987-22.621c0.331-0.829-0.141-1.509-1.048-1.509h-4.919l-6.529,16.435
		C25.686,40,24.674,40.679,23.768,40.679"/>
	<path fill="#238360" d="M22.306,24.245l-6.53,16.434h7.992c0.906,0,1.918-0.677,2.247-1.508l6.529-16.435h-7.993
		C23.646,22.736,22.635,23.417,22.306,24.245"/>
	<path fill="#B6CD1F" d="M17.234,30.261H9.24l-2.457,6.187c-0.329,0.83,0.142,1.51,1.047,1.51h12.913c0.905,0,1.916-0.68,2.245-1.51
		l8.987-22.62c0.33-0.832-0.142-1.509-1.046-1.509h-4.921l-6.529,16.434C19.15,29.583,18.14,30.261,17.234,30.261"/>
	<path fill="#8C932C" d="M15.771,13.827L9.242,30.261h7.992c0.906,0,1.917-0.677,2.246-1.509l6.529-16.434h-7.992
		C17.111,12.318,16.102,12.997,15.771,13.827"/>
	<path fill="#F2958B" d="M11.966,1.427h12.912c0.907,0,1.377,0.678,1.049,1.506l-8.988,22.623c-0.331,0.83-1.34,1.509-2.246,1.509
		H1.78c-0.905,0-1.377-0.679-1.047-1.509L9.721,2.933C10.052,2.104,11.061,1.427,11.966,1.427"/>
</g>
</svg>
