<?xml version="1.0" encoding="utf-8"?>
<!-- Generator: Adobe Illustrator 16.0.0, SVG Export Plug-In . SVG Version: 6.00 Build 0)  -->
<!DOCTYPE svg PUBLIC "-//W3C//DTD SVG 1.1//EN" "http://www.w3.org/Graphics/SVG/1.1/DTD/svg11.dtd">
<svg version="1.1" id="Capa_1" xmlns="http://www.w3.org/2000/svg" xmlns:xlink="http://www.w3.org/1999/xlink" x="0px" y="0px"
	 width="400px" height="200px" viewBox="0 0 400 200" enable-background="new 0 0 400 200" xml:space="preserve">
<path fill="#B6B6B6" d="M363.21,201.036c-0.575,0-1.155-0.124-1.698-0.378c-1.432-0.67-2.346-2.119-2.344-3.714
	c0.002-0.753,0.116-75.483,0.116-78.331c0-1.284-1.104-3.341-2.89-4.422c-1.686-1.023-15.055-7.857-26.325-13.572
	c0.235,16.472,0.817,57.315,0.817,59.822c0,2.495,1.639,6.838,3.992,9.079c3.677,3.503,20.355,17.661,20.523,17.805
	c1.709,1.45,1.932,4.026,0.495,5.754c-1.435,1.728-3.984,1.953-5.693,0.501c-0.694-0.589-17.026-14.454-20.87-18.115
	c-3.725-3.55-6.531-10.007-6.531-15.023c0-3.02-0.904-65.792-0.914-66.425c-0.021-1.426,0.696-2.76,1.891-3.518
	c1.196-0.758,2.697-0.832,3.959-0.195c3.053,1.542,29.913,15.121,32.818,16.884c4.074,2.47,6.811,7.062,6.811,11.426
	c0,2.257-0.07,49.466-0.102,69.493c8.366-7.187,21.755-18.677,23.22-19.887c0.914-0.755,0.9-0.901,0.815-1.856
	c-0.173-1.929,0.033-52.296,0.141-76.069c-8.181,4.311-21.732,11.435-23.299,12.154c-3.37,1.549-7.47,1.226-10.695-0.849
	c-1.557-0.985-20.132-10.793-31.475-16.745c-1.438-0.755-2.293-2.306-2.168-3.939s1.203-3.034,2.739-3.557
	c10.548-3.592,27.929-9.592,29.667-10.393c3.36-1.566,5.556-1.937,9.683,0.006c2.234,1.055,14.165,5.686,18.574,7.382
	c2.086,0.802,3.134,3.162,2.341,5.27c-0.796,2.109-3.132,3.167-5.216,2.365c-1.651-0.635-16.212-6.243-19.117-7.614
	c-1.119-0.527-1.439-0.554-1.471-0.555c-0.109,0.011-0.449,0.116-1.406,0.563c-1.724,0.804-12.974,4.713-21.492,7.643
	c9.209,4.85,22.169,11.709,23.682,12.682c0.913,0.588,2.124,0.711,3.007,0.304c1.463-0.672,18.054-9.395,28.848-15.093
	c1.256-0.663,2.764-0.614,3.975,0.131c1.211,0.745,1.947,2.076,1.939,3.509c-0.148,31.568-0.324,79.376-0.199,82.127
	c0.317,3.718-0.843,6.45-3.754,8.857c-2.043,1.688-29.497,25.282-29.774,25.521C365.084,200.704,364.151,201.036,363.21,201.036"/>
<path fill="#B6B6B6" d="M315.423,97.448c-0.041,0-0.079,0-0.119-0.001l-34.442-1.004c-2.231-0.064-3.989-1.945-3.924-4.2
	c0.064-2.254,1.931-4.028,4.156-3.965l34.442,1.003c2.231,0.065,3.989,1.946,3.924,4.202
	C319.396,95.697,317.601,97.448,315.423,97.448"/>
<path fill="#B6B6B6" d="M316.713,170.328h-0.038c-0.191-0.002-19.249-0.176-27.565-0.147h-0.037c-2.438,0-4.611-0.893-6.29-2.583
	c-2.482-2.499-3.741-6.548-3.741-12.034c0-5.319-2.082-62.476-2.103-63.053c-0.082-2.254,1.659-4.149,3.891-4.231
	c2.217-0.074,4.105,1.676,4.188,3.931c0.087,2.361,2.108,57.885,2.108,63.354c0,3.599,0.734,5.614,1.363,6.247
	c0.102,0.104,0.199,0.201,0.582,0.201h0.009c8.362-0.029,27.479,0.146,27.671,0.147c2.231,0.021,4.024,1.867,4.004,4.123
	C320.733,168.524,318.929,170.328,316.713,170.328"/>
<path fill="#B6B6B6" d="M361.924,63.026c-16.929,0-30.701-13.918-30.701-31.024c0-17.108,13.772-31.026,30.701-31.026
	c16.93,0,30.702,13.918,30.702,31.026C392.626,49.108,378.854,63.026,361.924,63.026 M361.924,9.145
	c-12.471,0-22.618,10.254-22.618,22.857c0,12.602,10.147,22.855,22.618,22.855c12.473,0,22.618-10.253,22.618-22.855
	C384.542,19.398,374.396,9.145,361.924,9.145"/>
<path fill="#B6B6B6" d="M335.604,165.766c-0.692,0-1.367-0.359-1.743-1.007c-0.566-0.972-0.245-2.225,0.717-2.796l19.376-11.518
	c0.962-0.571,2.201-0.246,2.768,0.725c0.565,0.974,0.244,2.225-0.718,2.797l-19.377,11.517
	C336.306,165.676,335.953,165.766,335.604,165.766"/>
<path fill="#B6B6B6" d="M387.651,167.302c-0.427,0-0.857-0.136-1.224-0.418l-15.957-12.286c-0.887-0.684-1.058-1.965-0.382-2.862
	s1.945-1.07,2.832-0.388l15.956,12.287c0.89,0.685,1.061,1.966,0.384,2.862C388.863,167.025,388.261,167.302,387.651,167.302"/>
<path fill="#B6B6B6" d="M0.87,64.841c0,3.37,1.167,6.234,3.501,8.594c2.334,2.358,5.169,3.538,8.503,3.538
	c3.557,0,6.503-1.18,8.837-3.538c2.334-2.359,3.501-5.224,3.501-8.594c0-3.594-1.167-6.571-3.501-8.93
	c-2.334-2.359-5.281-3.539-8.837-3.539c-3.334,0-6.169,1.18-8.503,3.539C2.038,58.27,0.87,61.248,0.87,64.841"/>
<rect x="3.204" y="86.241" fill="#B6B6B6" width="19.342" height="84.248"/>
<path fill="#B6B6B6" d="M35.718,86.241v84.247h19.509l-0.167-49.705c0-2.359,0.5-4.66,1.501-6.909c1-2.246,2.334-4.212,4.001-5.897
	c1.667-1.685,3.611-3.059,5.836-4.128c2.222-1.065,4.611-1.601,7.169-1.601c2.556,0,4.945,0.506,7.169,1.517
	c2.223,1.011,4.169,2.359,5.836,4.044s2.973,3.652,3.918,5.896c0.943,2.249,1.417,4.608,1.417,7.078l0.167,49.705h19.675
	l-0.166-49.705c0-5.278-1-10.25-3.001-14.912c-2.001-4.66-4.753-8.733-8.254-12.216c-3.501-3.48-7.561-6.234-12.171-8.256
	c-4.614-2.022-9.479-3.033-14.59-3.033c-3.893,0.113-7.394,0.9-10.504,2.358c-3.114,1.461-5.781,3.596-8.004,6.403v-4.886H35.718z"
	/>
<path fill="#B6B6B6" d="M210.213,110.251c-2.392-5.562-5.614-10.389-9.67-14.491c-4.06-4.099-8.837-7.356-14.34-9.773
	c-5.502-2.414-11.422-3.623-17.758-3.623c-6.336,0-12.256,1.209-17.758,3.623c-5.502,2.417-10.312,5.674-14.423,9.773
	c-4.114,4.102-7.366,8.929-9.754,14.491c-2.392,5.56-3.585,11.541-3.585,17.945c0,6.402,1.084,12.384,3.251,17.943
	c2.167,5.561,5.224,10.421,9.171,14.575c3.945,4.157,8.725,7.414,14.339,9.772c5.612,2.359,11.866,3.538,18.759,3.538
	c9.671,0,18.341-2.753,26.012-8.255v4.717h19.341v-42.291C213.798,121.792,212.602,115.811,210.213,110.251 M192.447,138.727
	c-1.339,3.201-3.208,5.981-5.604,8.341s-5.185,4.186-8.363,5.476c-3.179,1.293-6.55,1.937-10.12,1.937
	c-3.57,0-6.943-0.698-10.122-2.104c-3.179-1.403-5.938-3.286-8.279-5.645c-2.343-2.359-4.211-5.14-5.605-8.341
	c-1.393-3.201-2.089-6.598-2.089-10.193c0-3.594,0.696-6.993,2.089-10.195c1.394-3.2,3.262-5.981,5.605-8.34
	c2.342-2.358,5.101-4.238,8.279-5.645c3.178-1.403,6.552-2.106,10.122-2.106c3.569,0,6.941,0.703,10.12,2.106
	c3.178,1.406,5.937,3.286,8.279,5.645c2.343,2.358,4.211,5.14,5.604,8.34c1.395,3.202,2.093,6.602,2.093,10.195
	C194.457,132.016,193.787,135.525,192.447,138.727"/>
<path fill="#B6B6B6" d="M222.967,64.841c0,3.37,1.166,6.234,3.502,8.594c2.334,2.358,5.168,3.538,8.504,3.538
	c3.556,0,6.502-1.18,8.837-3.538c2.335-2.359,3.501-5.224,3.501-8.594c0-3.594-1.166-6.571-3.501-8.93
	c-2.335-2.359-5.281-3.539-8.837-3.539c-3.336,0-6.17,1.18-8.504,3.539C224.133,58.27,222.967,61.248,222.967,64.841"/>
<rect x="225.302" y="86.241" fill="#B6B6B6" width="19.342" height="84.248"/>
</svg>
